#!OML:ASF H:\Pregnant\Project 1\Capture day 1\Session 1\femalepreg.ASF
:FULLY-SPECIFIED
:DEGREES
1314
root 7.24217 0.854751 26.3948 74.7725 -55.3281 -172.727
lowerback 9.21638 1.81915 -2.31118
upperback 3.88511 1.5017 -8.63847
thorax -0.942657 0.518412 -7.94484
lowerneck -22.4191 18.0719 22.1385
upperneck 27.0794 22.4184 -11.2027
head 17.579 9.76597 -3.01559
rclavicle 1.11319e-014 -2.10463e-014
rhumerus -44.035 -1.66215 -71.9619
rradius 21.0343
rwrist 12.6877
rhand -11.1827 -11.3163
rfingers 7.12502
rthumb 14.8445 -40.7646
lclavicle 1.11319e-014 -2.10463e-014
lhumerus -61.7934 -54.3287 97.2149
lradius 39.747
lwrist 42.1893
lhand -7.39135 380.045
lfingers 7.12502
lthumb 18.4944 49.1856
rfemur -4.0126 18.4211 -3.36748
rtibia 40.4273
rfoot 17.8071 -4.78719
rtoes 12.2277
lfemur -12.1516 353.505 329.092
ltibia 45.7422
lfoot 27.9579 -383.62
ltoes -39.684
1315
root 7.22968 0.854939 26.3853 74.5852 -55.2229 -172.712
lowerback 9.40675 1.82201 -2.19752
upperback 3.93542 1.50588 -8.59942
thorax -0.992162 0.521295 -7.97465
lowerneck -22.4857 18.0654 22.1425
upperneck 27.1246 22.3934 -11.1921
head 17.61 9.75451 -3.01505
rclavicle -6.67916e-014 -1.28216e-014
rhumerus -44.0527 -1.65351 -71.949
rradius 21.0222
rwrist 12.683
rhand -11.2254 -11.3008
rfingers 7.12502
rthumb 14.8033 -40.7521
lclavicle -6.67916e-014 -1.28216e-014
lhumerus -61.8134 -54.3549 97.2484
lradius 39.7559
lwrist 42.1403
lhand -7.36705 379.995
lfingers 7.12502
lthumb 18.5178 49.1333
rfemur -3.87087 18.4777 -3.19629
rtibia 40.5543
rfoot 17.8147 -4.76889
rtoes 12.1121
lfemur -11.0597 353.624 329.184
ltibia 44.0402
lfoot 27.5751 -383.914
ltoes -39.4378
1316
root 7.21732 0.855023 26.3755 74.411 -55.1138 -172.706
lowerback 9.58945 1.82636 -2.07603
upperback 3.98888 1.51351 -8.56429
thorax -1.03319 0.52592 -8.01349
lowerneck -22.5646 18.0611 22.1525
upperneck 27.1629 22.3662 -11.184
head 17.6411 9.74226 -3.01605
rclavicle 3.18055e-014 -6.19214e-014
rhumerus -44.0638 -1.6639 -71.9386
rradius 21.0082
rwrist 12.6912
rhand -11.2647 -11.2885
rfingers 7.12502
rthumb 14.7655 -40.7425
lclavicle 3.18055e-014 -6.19214e-014
lhumerus -61.8304 -54.3978 97.2756
lradius 39.7687
lwrist 42.0964
lhand -7.35623 379.936
lfingers 7.12502
lthumb 18.5282 49.0737
rfemur -3.73627 18.5389 -3.0188
rtibia 40.6805
rfoot 17.8318 -4.73412
rtoes 11.9641
lfemur -9.93905 353.738 329.28
ltibia 42.2829
lfoot 27.191 -384.215
ltoes -39.3328
1317
root 7.2054 0.855102 26.3659 74.2486 -55.001 -172.707
lowerback 9.76382 1.83098 -1.94736
upperback 4.04437 1.52286 -8.53454
thorax -1.06673 0.5314 -8.06239
lowerneck -22.654 18.0609 22.1737
upperneck 27.1953 22.3383 -11.1777
head 17.6733 9.73051 -3.0185
rclavicle 3.65764e-014 4.86525e-014
rhumerus -44.0679 -1.69562 -71.9318
rradius 20.9902
rwrist 12.7141
rhand -11.3054 -11.2735
rfingers 7.12502
rthumb 14.7263 -40.7304
lclavicle 3.65764e-014 4.86525e-014
lhumerus -61.845 -54.4562 97.2935
lradius 39.7849
lwrist 42.0582
lhand -7.33631 379.87
lfingers 7.12502
lthumb 18.5473 49.0062
rfemur -3.608 18.6036 -2.8344
rtibia 40.8045
rfoot 17.8587 -4.68429
rtoes 11.7836
lfemur -8.78945 353.854 329.381
ltibia 40.4658
lfoot 26.8194 -384.523
ltoes -39.2284
1318
root 7.19394 0.855176 26.3563 74.0992 -54.884 -172.716
lowerback 9.93111 1.83272 -1.81921
upperback 4.09534 1.5294 -8.50274
thorax -1.10143 0.535625 -8.10834
lowerneck -22.73 18.0617 22.2016
upperneck 27.2216 22.3139 -11.1776
head 17.7025 9.72065 -3.02427
rclavicle 1.59028e-015 -3.27001e-014
rhumerus -44.0703 -1.71269 -71.9319
rradius 20.9714
rwrist 12.7307
rhand -11.3444 -11.264
rfingers 7.12502
rthumb 14.6887 -40.7237
lclavicle 1.59028e-015 -3.27001e-014
lhumerus -61.8618 -54.5025 97.3077
lradius 39.8019
lwrist 42.0184
lhand -7.31894 379.795
lfingers 7.12502
lthumb 18.5641 48.9295
rfemur -3.4869 18.6692 -2.6434
rtibia 40.9249
rfoot 17.8954 -4.63139
rtoes 11.6135
lfemur -7.6066 353.962 329.488
ltibia 38.582
lfoot 26.4722 -384.821
ltoes -39.1798
1319
root 7.18304 0.855149 26.347 73.9606 -54.7616 -172.729
lowerback 10.0926 1.82609 -1.70641
upperback 4.13746 1.52537 -8.45722
thorax -1.14445 0.534875 -8.12903
lowerneck -22.7697 18.066 22.2369
upperneck 27.2363 22.3059 -11.1946
head 17.7257 9.71686 -3.03586
rclavicle -1.59028e-015 -8.03587e-014
rhumerus -44.0681 -1.66914 -71.9408
rradius 20.9545
rwrist 12.7182
rhand -11.3779 -11.2595
rfingers 7.12502
rthumb 14.6564 -40.7216
lclavicle -1.59028e-015 -8.03587e-014
lhumerus -61.8697 -54.4997 97.3179
lradius 39.8116
lwrist 41.9691
lhand -7.26219 379.73
lfingers 7.12502
lthumb 18.6186 48.8589
rfemur -3.37165 18.7339 -2.44411
rtibia 41.0407
rfoot 17.9394 -4.56483
rtoes 11.403
lfemur -6.38655 354.065 329.601
ltibia 36.6251
lfoot 26.1442 -385.107
ltoes -39.1665
1320
root 7.1724 0.855058 26.3375 73.8207 -54.6349 -172.75
lowerback 10.2657 1.81403 -1.60937
upperback 4.17044 1.51319 -8.39617
thorax -1.20552 0.53008 -8.12311
lowerneck -22.7695 18.0694 22.2724
upperneck 27.2457 22.3098 -11.222
head 17.7421 9.7177 -3.05117
rclavicle 9.54166e-015 -8.04829e-014
rhumerus -44.0697 -1.56695 -71.9518
rradius 20.9398
rwrist 12.6784
rhand -11.4059 -11.2597
rfingers 7.12502
rthumb 14.6294 -40.7236
lclavicle 9.54166e-015 -8.04829e-014
lhumerus -61.8777 -54.4473 97.3346
lradius 39.8141
lwrist 41.9117
lhand -7.18077 379.672
lfingers 7.12502
lthumb 18.697 48.7934
rfemur -3.24891 18.7997 -2.23462
rtibia 41.1516
rfoot 17.9895 -4.49557
rtoes 11.1907
lfemur -5.10704 354.163 329.718
ltibia 34.5868
lfoot 25.8175 -385.381
ltoes -39.2422
1321
root 7.16205 0.854805 26.328 73.6747 -54.5024 -172.772
lowerback 10.4539 1.79643 -1.53105
upperback 4.19296 1.49243 -8.31604
thorax -1.28816 0.521019 -8.08497
lowerneck -22.7297 18.0711 22.3029
upperneck 27.2537 22.3258 -11.2573
head 17.7526 9.72287 -3.06853
rclavicle 2.70347e-014 7.74515e-014
rhumerus -44.0786 -1.40436 -71.959
rradius 20.9294
rwrist 12.6133
rhand -11.4302 -11.265
rfingers 7.12502
rthumb 14.6061 -40.7307
lclavicle 2.70347e-014 7.74515e-014
lhumerus -61.8904 -54.345 97.368
lradius 39.8077
lwrist 41.8457
lhand -7.08761 379.629
lfingers 7.12502
lthumb 18.7866 48.7416
rfemur -3.11569 18.8673 -2.01209
rtibia 41.2572
rfoot 18.0387 -4.43508
rtoes 10.9999
lfemur -3.76434 354.261 329.841
ltibia 32.4593
lfoot 25.4849 -385.66
ltoes -39.5067
1322
root 7.15213 0.854145 26.3183 73.531 -54.3632 -172.799
lowerback 10.6525 1.7744 -1.46608
upperback 4.20637 1.46523 -8.2204
thorax -1.38775 0.508787 -8.02175
lowerneck -22.6663 18.0738 22.3316
upperneck 27.2665 22.3539 -11.2996
head 17.7642 9.73193 -3.08684
rclavicle 1.27222e-014 1.48592e-013
rhumerus -44.0907 -1.19936 -71.9617
rradius 20.9214
rwrist 12.5349
rhand -11.449 -11.2713
rfingers 7.12502
rthumb 14.5879 -40.7382
lclavicle 1.27222e-014 1.48592e-013
lhumerus -61.8928 -54.1999 97.4023
lradius 39.7918
lwrist 41.7787
lhand -6.97851 379.61
lfingers 7.12502
lthumb 18.8915 48.7126
rfemur -2.98094 18.9332 -1.77883
rtibia 41.358
rfoot 18.0891 -4.37999
rtoes 10.8315
lfemur -2.35663 354.367 329.973
ltibia 30.2316
lfoot 25.1168 -385.948
ltoes -39.9131
1323
root 7.14279 0.853048 26.3086 73.3943 -54.2164 -172.829
lowerback 10.8523 1.75442 -1.3972
upperback 4.21646 1.44148 -8.12238
thorax -1.49088 0.498268 -7.95869
lowerneck -22.6128 18.0754 22.3567
upperneck 27.291 22.3779 -11.3333
head 17.781 9.73955 -3.10172
rclavicle -3.18055e-015 -8.27441e-015
rhumerus -44.1053 -1.01091 -71.9568
rradius 20.911
rwrist 12.47
rhand -11.4754 -11.2777
rfingers 7.12502
rthumb 14.5625 -40.7465
lclavicle -3.18055e-015 -8.27441e-015
lhumerus -61.8832 -54.0582 97.4277
lradius 39.7722
lwrist 41.7163
lhand -6.85801 379.615
lfingers 7.12502
lthumb 19.0074 48.7068
rfemur -2.84968 18.9985 -1.53469
rtibia 41.4531
rfoot 18.1384 -4.33541
rtoes 10.6909
lfemur -0.884579 354.473 330.114
ltibia 27.8926
lfoot 24.7144 -386.243
ltoes -40.4827
1324
root 7.13442 0.851271 26.2991 73.2958 -54.0643 -172.87
lowerback 11.0296 1.73756 -1.32086
upperback 4.21993 1.42403 -8.02911
thorax -1.58729 0.491045 -7.90524
lowerneck -22.5779 18.0772 22.385
upperneck 27.3199 22.3943 -11.3589
head 17.8014 9.74507 -3.11448
rclavicle -2.38542e-014 1.37658e-014
rhumerus -44.117 -0.844694 -71.9559
rradius 20.8978
rwrist 12.416
rhand -11.5044 -11.2869
rfingers 7.12502
rthumb 14.5346 -40.7578
lclavicle -2.38542e-014 1.37658e-014
lhumerus -61.8705 -53.9354 97.4452
lradius 39.7522
lwrist 41.6587
lhand -6.74916 379.626
lfingers 7.12502
lthumb 19.1121 48.7072
rfemur -2.75159 19.0618 -1.28985
rtibia 41.5434
rfoot 18.1866 -4.30214
rtoes 10.605
lfemur 0.638775 354.577 330.265
ltibia 25.4205
lfoot 24.2775 -386.554
ltoes -41.2563
